<svg id="Capa_1" data-name="Capa 1" xmlns="http://www.w3.org/2000/svg" viewBox="0 0 281.83 176.65"><defs><style>.cls-1{fill:#0a4d99;}.cls-2{fill:#0c0708;}</style></defs><title>FreeShopHelados Logotipo</title><path class="cls-1" d="M146.87,63c-2.25-1.52,1.77-8.33,3.13-9.34,3.08-2.23,9.29-1,8.37,3.79-.81,4.56-3.64,6.85-7.46,9-13.54,7.74-38.13,25-30.23,42.36l2.68,5.19,4.16,2.67s-4.7-7.06-.33-14.09c3.9-6.24,13.41-10.53,19.68-14.15,7.81-4.51,16.21-8.29,22.66-14.63a24.9,24.9,0,0,0,7-13.25c3.07-17.38-22.94-28.52-33-14.47C139.47,51.75,142,59.62,146.87,63Z" transform="translate(0 -18.01)"/><path class="cls-1" d="M136.81,42.42c-2.38-1.26.63-8.51,1.89-9.68,2.69-2.59,9-2.15,8.78,2.72-.21,4.64-2.68,7.26-6.16,9.88-12.38,9.39-34.39,29.55-24.16,45.77l3.37,4.83,4.5,2.13s-5.63-6.43-2.26-13.91c3-6.65,11.85-12.14,17.55-16.51,7.13-5.45,15-10.23,20.48-17.32a24.32,24.32,0,0,0,5.09-14c.69-17.61-26.62-25.42-34.69-10.24C128,32.18,131.52,39.67,136.81,42.42Z" transform="translate(0 -18.01)"/><path class="cls-2" d="M0,183.08V105.62H27v5.7H12.75v23.61H23.07v5.14H12.75v43Z" transform="translate(0 -18.01)"/><path class="cls-2" d="M41.62,183.08H29.21V124.71a36.68,36.68,0,0,1,16.36-4.31,17.33,17.33,0,0,1,1.91.08v5.24a3.42,3.42,0,0,0-2.1-.78,10.48,10.48,0,0,0-3.77.54Z" transform="translate(0 -18.01)"/><path class="cls-2" d="M51.05,169.87h-2l2-5.47V135c0-5.15,1.28-8.87,3.9-11.11s6.86-3.38,12.84-3.38,10.32,1.17,12.91,3.44,3.9,6,3.9,11.08v18c0,6.76-1.91,11.36-5.72,13.87q-4.5,3-15.11,3v3.66q0,5.85,6.71,5.85c2.3,0,5.09-.91,8.44-2.7l.06,4.94a31.89,31.89,0,0,1-11.23,2q-8.93,0-12.8-3.24C52.33,178.18,51.05,174.68,51.05,169.87Zm12.72-5.69h3.7a3.23,3.23,0,0,0,3.31-1.85c.69-1.57,1.06-5,1.06-10.25V135.43a32.38,32.38,0,0,0-.36-6.22c-.56-2.46-1.9-3.7-4-3.7h-2.9a2.7,2.7,0,0,1-.8.21Z" transform="translate(0 -18.01)"/><path class="cls-2" d="M91.21,169.87h-2l2-5.47V135c0-5.15,1.29-8.87,3.87-11.11s6.88-3.38,12.86-3.38,10.31,1.17,12.92,3.44,3.89,6,3.89,11.08v18c0,6.76-1.9,11.36-5.71,13.87-3,2-8,3-15.12,3v3.66q0,5.85,6.71,5.85c2.27,0,5.09-.91,8.45-2.7v4.94a32.11,32.11,0,0,1-11.23,2q-8.92,0-12.81-3.24C92.46,178.18,91.21,174.68,91.21,169.87Zm12.67-5.69h3.7a3.23,3.23,0,0,0,3.29-1.85c.71-1.57,1.06-5,1.06-10.25V135.43a35.94,35.94,0,0,0-.33-6.22c-.57-2.46-1.92-3.7-4-3.7h-2.89a2.85,2.85,0,0,1-.81.21Z" transform="translate(0 -18.01)"/><path class="cls-2" d="M143.68,127.11a20.86,20.86,0,0,0,.54,6c.68,1.84,2.89,4,6.64,6.38a64.92,64.92,0,0,1,9.3,6.76,15,15,0,0,1,4.71,11v4.35c0,2.2.07,3.5.07,4,0,6.29-.91,10.69-2.71,13.15-2.37,3.25-7.09,4.88-14.2,4.88-6,0-10.27-1.14-12.89-3.39s-3.89-6-3.89-11.1V154.31H144v13.92a41.53,41.53,0,0,0,.26,6.31c.51,2.57,1.77,3.88,3.77,3.88s3.37-1.28,3.83-3.85a51.11,51.11,0,0,0,.21-6.31V155c0-1.69-1.61-3.71-4.86-6-1.55-1-3.91-2.58-7-4.71-.62-.46-1.77-1.29-3.39-2.54-3.38-2.45-5-5.52-5-9.21v-13c0-4.93,1.21-8.47,3.63-10.58s6.48-3.2,12.16-3.2,9.65,1.08,12.14,3.26,3.74,5.68,3.74,10.52v12.63H151.33V120.29a41.68,41.68,0,0,0-.24-5.91c-.47-2.46-1.66-3.69-3.55-3.69a5.52,5.52,0,0,0-2.35.25c-.58.42-1,1.7-1.16,3.85S143.68,121.18,143.68,127.11Z" transform="translate(0 -18.01)"/><path class="cls-2" d="M182.68,183.08H170V105.76l12.53.86v14c3.26-.18,5.1-.27,5.59-.27q15.38,0,15.38,14.6v48.13H190.73V135.82c0-5.76-.76-9.07-2.24-9.9a9,9,0,0,0-3.92-.55l-2,.2Z" transform="translate(0 -18.01)"/><path class="cls-2" d="M242.71,169.07c0,5.17-1.3,8.88-3.8,11.15s-6.86,3.37-12.93,3.37-10.29-1.14-12.92-3.43-3.85-6-3.85-11.09V135q0-7.65,3.85-11.08c2.63-2.27,6.92-3.44,12.92-3.44s10.3,1.13,12.86,3.38,3.87,6,3.87,11.14Zm-12.66-33.89a41.47,41.47,0,0,0-.23-6c-.48-2.37-1.75-3.56-3.8-3.55s-3.24,1.3-3.79,3.92a47.36,47.36,0,0,0-.27,6.3v32.37a41.14,41.14,0,0,0,.26,6.28c.51,2.57,1.78,3.88,3.8,3.88s3.32-1.18,3.8-3.5a43,43,0,0,0,.23-6Z" transform="translate(0 -18.01)"/><path class="cls-2" d="M265,120.48c6,0,10.24,1.17,12.86,3.44s3.93,6,3.93,11.12v31.23c0,6.75-1.9,11.4-5.71,13.88q-4.55,3-15.15,3v10.61l-12.62.9V183.08h-2.09l2.09-5.61V135c0-5.17,1.29-8.87,3.83-11.14S259,120.48,265,120.48ZM261,177.42h3.71c2.21,0,3.56-1.6,4.16-4.8a60.77,60.77,0,0,0,.24-7.39v-29.8a32.25,32.25,0,0,0-.39-6.21c-.59-2.48-1.9-3.74-4-3.74a21,21,0,0,0-3.71.24Z" transform="translate(0 -18.01)"/></svg>